<svg width="19" height="20" viewBox="0 0 19 20" fill="none" xmlns="http://www.w3.org/2000/svg">
<path d="M12.3486 4.55189C12.6504 4.20334 12.8805 3.79848 13.0258 3.36056C13.171 2.92264 13.2285 2.46029 13.1949 2.00006C12.2683 2.07501 11.4082 2.51167 10.7998 3.21598C10.5085 3.55354 10.2877 3.94624 10.1506 4.37082C10.0135 4.7954 9.96277 5.24324 10.0015 5.68782C10.4535 5.69159 10.9002 5.5911 11.3073 5.39412C11.7143 5.19715 12.0706 4.90897 12.3486 4.55189ZM14.3604 10.5035C14.3658 9.89053 14.5269 9.28903 14.8286 8.75577C15.1304 8.22252 15.5627 7.77508 16.0849 7.4557C15.7553 6.97992 15.3197 6.58762 14.8125 6.30991C14.3053 6.03221 13.7405 5.87673 13.1629 5.8558C11.9175 5.72781 10.7679 6.58376 10.1053 6.58376C9.44264 6.58376 8.50858 5.8718 7.47073 5.8878C6.79224 5.9102 6.13113 6.10841 5.55187 6.46311C4.97261 6.81781 4.49499 7.31689 4.16559 7.91167C2.7605 10.3595 3.80633 13.9993 5.21142 15.9751C5.85009 16.9431 6.64844 18.039 7.70225 17.999C8.75606 17.959 9.09935 17.343 10.3208 17.343C11.5423 17.343 11.9175 17.999 12.9554 17.975C13.9932 17.951 14.7277 16.9831 15.3983 16.0151C15.8733 15.3124 16.2444 14.5445 16.5 13.7353C15.8673 13.4649 15.3275 13.0148 14.9473 12.4404C14.567 11.8661 14.363 11.1927 14.3604 10.5035Z" fill="white"/>
</svg>
