<svg width="10" height="10" viewBox="0 0 10 10" fill="none" xmlns="http://www.w3.org/2000/svg">
<path d="M6.41 4.99994L9.71 1.70994C9.80324 1.6167 9.8772 1.50601 9.92766 1.38419C9.97812 1.26237 10.0041 1.1318 10.0041 0.999941C10.0041 0.868082 9.97812 0.737514 9.92766 0.615692C9.8772 0.49387 9.80324 0.38318 9.71 0.289941C9.61676 0.196703 9.50607 0.122742 9.38425 0.0722818C9.26243 0.0218215 9.13186 -0.00415039 9 -0.00415039C8.86814 -0.00415039 8.73757 0.0218215 8.61575 0.0722818C8.49393 0.122742 8.38324 0.196703 8.29 0.289941L4.29 4.28994C4.19627 4.3829 4.12188 4.49351 4.07111 4.61536C4.02034 4.73722 3.9942 4.86793 3.9942 4.99994C3.9942 5.13195 4.02034 5.26266 4.07111 5.38452C4.12188 5.50638 4.19627 5.61698 4.29 5.70994L8.29 9.70994C8.38296 9.80367 8.49356 9.87806 8.61542 9.92883C8.73728 9.9796 8.86799 10.0057 9 10.0057C9.13201 10.0057 9.26272 9.9796 9.38458 9.92883C9.50644 9.87806 9.61704 9.80367 9.71 9.70994C9.80373 9.61698 9.87812 9.50638 9.92889 9.38452C9.97966 9.26266 10.0058 9.13195 10.0058 8.99994C10.0058 8.86793 9.97966 8.73722 9.92889 8.61536C9.87812 8.4935 9.80373 8.38291 9.71 8.28994L6.41 4.99994ZM1 -5.8651e-05C0.734784 -5.8651e-05 0.48043 0.105298 0.292893 0.292835C0.105357 0.480371 0 0.734725 0 0.999941V8.99994C0 9.26516 0.105357 9.51951 0.292893 9.70705C0.48043 9.89458 0.734784 9.99994 1 9.99994C1.26522 9.99994 1.51957 9.89458 1.70711 9.70705C1.89464 9.51951 2 9.26516 2 8.99994V0.999941C2 0.734725 1.89464 0.480371 1.70711 0.292835C1.51957 0.105298 1.26522 -5.8651e-05 1 -5.8651e-05Z" fill="white"/>
</svg>
