<svg width="24" height="25" viewBox="0 0 24 25" fill="none" xmlns="http://www.w3.org/2000/svg">
<rect y="0.5" width="24" height="24" rx="12" fill="#FF4100"/>
<path d="M13.41 12.4999L16.71 9.20994C16.8032 9.1167 16.8772 9.00601 16.9277 8.88419C16.9781 8.76237 17.0041 8.6318 17.0041 8.49994C17.0041 8.36808 16.9781 8.23751 16.9277 8.11569C16.8772 7.99387 16.8032 7.88318 16.71 7.78994C16.6168 7.6967 16.5061 7.62274 16.3842 7.57228C16.2624 7.52182 16.1319 7.49585 16 7.49585C15.8681 7.49585 15.7376 7.52182 15.6158 7.57228C15.4939 7.62274 15.3832 7.6967 15.29 7.78994L11.29 11.7899C11.1963 11.8829 11.1219 11.9935 11.0711 12.1154C11.0203 12.2372 10.9942 12.3679 10.9942 12.4999C10.9942 12.632 11.0203 12.7627 11.0711 12.8845C11.1219 13.0064 11.1963 13.117 11.29 13.2099L15.29 17.2099C15.383 17.3037 15.4936 17.3781 15.6154 17.4288C15.7373 17.4796 15.868 17.5057 16 17.5057C16.132 17.5057 16.2627 17.4796 16.3846 17.4288C16.5064 17.3781 16.617 17.3037 16.71 17.2099C16.8037 17.117 16.8781 17.0064 16.9289 16.8845C16.9797 16.7627 17.0058 16.632 17.0058 16.4999C17.0058 16.3679 16.9797 16.2372 16.9289 16.1154C16.8781 15.9935 16.8037 15.8829 16.71 15.7899L13.41 12.4999ZM8 7.49994C7.73478 7.49994 7.48043 7.6053 7.29289 7.79283C7.10536 7.98037 7 8.23472 7 8.49994V16.4999C7 16.7652 7.10536 17.0195 7.29289 17.207C7.48043 17.3946 7.73478 17.4999 8 17.4999C8.26522 17.4999 8.51957 17.3946 8.70711 17.207C8.89464 17.0195 9 16.7652 9 16.4999V8.49994C9 8.23472 8.89464 7.98037 8.70711 7.79283C8.51957 7.6053 8.26522 7.49994 8 7.49994Z" fill="white"/>
</svg>
