<svg width="34" height="34" viewBox="0 0 34 34" fill="none" xmlns="http://www.w3.org/2000/svg">
<g filter="url(#filter0_d_0_1317)">
<rect x="5" y="4" width="24" height="24" rx="12" fill="#FF4100"/>
<path d="M18.41 15.9999L21.71 12.7099C21.8032 12.6167 21.8772 12.506 21.9277 12.3842C21.9781 12.2624 22.0041 12.1318 22.0041 11.9999C22.0041 11.8681 21.9781 11.7375 21.9277 11.6157C21.8772 11.4939 21.8032 11.3832 21.71 11.2899C21.6168 11.1967 21.5061 11.1227 21.3842 11.0723C21.2624 11.0218 21.1319 10.9958 21 10.9958C20.8681 10.9958 20.7376 11.0218 20.6158 11.0723C20.4939 11.1227 20.3832 11.1967 20.29 11.2899L16.29 15.2899C16.1963 15.3829 16.1219 15.4935 16.0711 15.6154C16.0203 15.7372 15.9942 15.8679 15.9942 15.9999C15.9942 16.132 16.0203 16.2627 16.0711 16.3845C16.1219 16.5064 16.1963 16.617 16.29 16.7099L20.29 20.7099C20.383 20.8037 20.4936 20.8781 20.6154 20.9288C20.7373 20.9796 20.868 21.0057 21 21.0057C21.132 21.0057 21.2627 20.9796 21.3846 20.9288C21.5064 20.8781 21.617 20.8037 21.71 20.7099C21.8037 20.617 21.8781 20.5064 21.9289 20.3845C21.9797 20.2627 22.0058 20.132 22.0058 19.9999C22.0058 19.8679 21.9797 19.7372 21.9289 19.6154C21.8781 19.4935 21.8037 19.3829 21.71 19.2899L18.41 15.9999ZM13 10.9999C12.7348 10.9999 12.4804 11.1053 12.2929 11.2928C12.1054 11.4804 12 11.7347 12 11.9999V19.9999C12 20.2652 12.1054 20.5195 12.2929 20.707C12.4804 20.8946 12.7348 20.9999 13 20.9999C13.2652 20.9999 13.5196 20.8946 13.7071 20.707C13.8946 20.5195 14 20.2652 14 19.9999V11.9999C14 11.7347 13.8946 11.4804 13.7071 11.2928C13.5196 11.1053 13.2652 10.9999 13 10.9999Z" fill="white"/>
</g>
<defs>
<filter id="filter0_d_0_1317" x="0" y="0" width="34" height="34" filterUnits="userSpaceOnUse" color-interpolation-filters="sRGB">
<feFlood flood-opacity="0" result="BackgroundImageFix"/>
<feColorMatrix in="SourceAlpha" type="matrix" values="0 0 0 0 0 0 0 0 0 0 0 0 0 0 0 0 0 0 127 0" result="hardAlpha"/>
<feOffset dy="1"/>
<feGaussianBlur stdDeviation="2.5"/>
<feComposite in2="hardAlpha" operator="out"/>
<feColorMatrix type="matrix" values="0 0 0 0 0 0 0 0 0 0 0 0 0 0 0 0 0 0 0.25 0"/>
<feBlend mode="normal" in2="BackgroundImageFix" result="effect1_dropShadow_0_1317"/>
<feBlend mode="normal" in="SourceGraphic" in2="effect1_dropShadow_0_1317" result="shape"/>
</filter>
</defs>
</svg>
