<svg width="16" height="16" viewBox="0 0 16 16" fill="none" xmlns="http://www.w3.org/2000/svg">
<g clip-path="url(#clip0_0_1465)">
<path d="M15.6169 8.14988C15.6169 7.49437 15.5637 7.01602 15.4487 6.51996H7.96826V9.47861H12.3591C12.2706 10.2139 11.7926 11.3212 10.7302 12.0652L10.7154 12.1643L13.0805 13.9978L13.2444 14.0141C14.7493 12.6233 15.6169 10.5771 15.6169 8.14988Z" fill="white"/>
<path d="M7.96832 15.9452C10.1195 15.9452 11.9254 15.2365 13.2444 14.0141L10.7303 12.0652C10.0575 12.5347 9.15454 12.8625 7.96832 12.8625C5.86142 12.8625 4.07322 11.4718 3.43577 9.5495L3.34233 9.55744L0.882992 11.462L0.85083 11.5515C2.161 14.1558 4.85219 15.9452 7.96832 15.9452Z" fill="white"/>
<path d="M3.43574 9.54948C3.26755 9.05342 3.17021 8.52188 3.17021 7.97269C3.17021 7.42344 3.26755 6.89196 3.42689 6.3959L3.42244 6.29025L0.932277 4.3551L0.850803 4.39388C0.31082 5.47461 0.000976562 6.68823 0.000976562 7.97269C0.000976562 9.25715 0.31082 10.4707 0.850803 11.5514L3.43574 9.54948Z" fill="white"/>
<path d="M7.96832 3.08287C9.46438 3.08287 10.4736 3.72953 11.049 4.26992L13.2975 2.07304C11.9166 0.78858 10.1195 0.000183105 7.96832 0.000183105C4.85219 0.000183105 2.161 1.78956 0.85083 4.39389L3.42692 6.39591C4.07322 4.47365 5.86142 3.08287 7.96832 3.08287Z" fill="white"/>
</g>
<defs>
<clipPath id="clip0_0_1465">
<rect width="15.625" height="16" fill="white" transform="translate(0.000244141 0.000183105)"/>
</clipPath>
</defs>
</svg>
